<svg xmlns="http://www.w3.org/2000/svg" width="23.707" height="22" viewBox="0 0 23.707 22">
    <g id="그룹_19094" transform="translate(-125.801 -417.32)">
        <path id="패스_8145"
              d="M880.655,430.593c-6.548,0-11.854,4.222-11.854,9.442,0,3.315,2.145,6.227,5.389,7.913l-.9,4.645,5.129-3.285a14.983,14.983,0,0,0,2.233.168c6.548,0,11.854-4.227,11.854-9.442S887.2,430.593,880.655,430.593Z"
              transform="translate(-743 -13.273)" fill="#3b1e1e"/>
        <g id="그룹_19093" transform="translate(128.822 424.469)">
            <g id="그룹_19091" transform="translate(0 0.036)">
                <path id="패스_8146"
                      d="M871.133,434.957a.5.5,0,0,0-.354.14.534.534,0,0,0-.107.142.479.479,0,0,0-.036.181.445.445,0,0,0,.036.178.5.5,0,0,0,.461.282h1.217v4.126a.482.482,0,0,0,.143.349.5.5,0,0,0,.354.151h.112a.5.5,0,0,0,.352-.151.488.488,0,0,0,.15-.349v-4.126h1.2a.534.534,0,0,0,.352-.133.528.528,0,0,0,.107-.148.422.422,0,0,0,.04-.178.455.455,0,0,0-.04-.181.462.462,0,0,0-.183-.2.512.512,0,0,0-.277-.086Z"
                      transform="translate(-870.636 -434.957)" fill="#fee500"/>
            </g>
            <g id="그룹_19092" transform="translate(3.578 0)">
                <path id="패스_8147"
                      d="M874.268,439.366h2.307l.408.9a.5.5,0,0,0,.191.217.511.511,0,0,0,.468.028l.107-.046a.484.484,0,0,0,.216-.188l.14-.229-2.126-4.678a.4.4,0,0,0-.064-.153.268.268,0,0,0-.068-.084.38.38,0,0,0-.125-.114.531.531,0,0,0-.244-.077c-.046,0-.064,0-.087,0a.5.5,0,0,0-.263.077.544.544,0,0,0-.153.147.66.66,0,0,0-.043.061.494.494,0,0,0-.063.142l-.01.043L872.85,439.8a.47.47,0,0,0-.041.2.494.494,0,0,0,.291.459l.1.046a.5.5,0,0,0,.476-.035.494.494,0,0,0,.184-.217Zm10.1-1.19,1.569,2.142a.505.505,0,0,0,.181.151.524.524,0,0,0,.517-.043l.091-.067a.557.557,0,0,0,.155-.179.624.624,0,0,0,.048-.227.461.461,0,0,0-.1-.291l-1.683-2.3,1.406-1.461a.5.5,0,0,0,.138-.347.508.508,0,0,0-.039-.191.5.5,0,0,0-.115-.168l-.081-.081a.506.506,0,0,0-.538-.1.529.529,0,0,0-.17.117l-2.042,2.129v-1.782a.482.482,0,0,0-.145-.351.5.5,0,0,0-.351-.155h-.115a.506.506,0,0,0-.5.505v4.671l.061.112a.488.488,0,0,0,.084.109.51.51,0,0,0,.354.151h.112a.507.507,0,0,0,.354-.151.484.484,0,0,0,.145-.349v-1.158Zm-6,2.009.048.084a.453.453,0,0,0,.171.168.5.5,0,0,0,.224.081c.02,0,.038,0,.051,0h2.911a.53.53,0,0,0,.354-.133.441.441,0,0,0,.094-.12l.14-.259-.2-.222a.349.349,0,0,0-.11-.091.5.5,0,0,0-.277-.079h-2.3v-4.14a.493.493,0,0,0-.142-.351.511.511,0,0,0-.357-.155h-.114a.5.5,0,0,0-.351.151.5.5,0,0,0-.146.354Zm-2.2-1.722h-1.48l.741-1.62Z"
                      transform="translate(-872.809 -434.935)" fill="#fee500"/>
            </g>
        </g>
    </g>
</svg>
