<svg xmlns="http://www.w3.org/2000/svg" xmlns:xlink="http://www.w3.org/1999/xlink" width="113.788" height="110.065"
     viewBox="0 0 113.788 110.065">
    <defs>
        <linearGradient id="linear-gradient" x1="-0.006" y1="0.748" x2="1.641" y2="0.381"
                        gradientUnits="objectBoundingBox">
            <stop offset="0" stop-color="#ec585c"/>
            <stop offset="1" stop-color="#edf8f9"/>
        </linearGradient>
        <linearGradient id="linear-gradient-2" x1="0.099" y1="0.903" x2="0.931" y2="-0.213"
                        xlink:href="#linear-gradient"/>
    </defs>
    <g id="그룹_18717" transform="translate(620 -4557.768)">
        <g id="그룹_18716" transform="translate(-595.619 4557.768)">
            <g id="그룹_18715" transform="translate(0 0)">
                <path id="패스_7747"
                      d="M34.2,17.1c0,9.445-17.1,28.782-17.1,28.782S0,26.545,0,17.1a17.1,17.1,0,1,1,34.2,0Z"
                      transform="translate(30.81 23.44) rotate(1)" fill="url(#linear-gradient)"/>
                <path id="패스_7748"
                      d="M51.443,25.722c0,14.207-25.722,43.294-25.722,43.294S0,39.929,0,25.722a25.722,25.722,0,1,1,51.443,0Z"
                      transform="translate(0 0.898) rotate(-1)" fill="url(#linear-gradient-2)"/>
                <path id="패스_7749" d="M38.237,15.773l-6.9-2.447a15.738,15.738,0,1,0-.076,5.4Z"
                      transform="translate(21.746 3.473) rotate(31)" fill="#fff"/>
            </g>
        </g>
        <g id="그룹_18714" transform="translate(-620 4640.71)">
            <path id="패스_56"
                  d="M884.967,779.218a12.023,12.023,0,0,0-1.419-.7,10.778,10.778,0,0,0-4.455-1.026,7.3,7.3,0,0,0-6.862,4.284c-1.49,3.281-.41,6.608,3.287,10.156,2.71,2.754,2.831,4.194,2.125,5.75a3.261,3.261,0,0,1-3.118,2,6.179,6.179,0,0,1-2.528-.612,10.9,10.9,0,0,1-4.373-3.687l-.541-.784-2.91,3.33.359.48a13.862,13.862,0,0,0,5.521,4.387,12.159,12.159,0,0,0,5,1.191,7.515,7.515,0,0,0,7.109-4.546c1.582-3.492.694-6.574-2.969-10.3-2.635-2.685-3.2-4.023-2.432-5.725a2.882,2.882,0,0,1,2.728-1.663,5.455,5.455,0,0,1,2.226.542,9.4,9.4,0,0,1,3.254,2.427v19.268h4.762V777.093h-4.762Z"
                  transform="translate(-864.173 -776.874)" fill="#ec585c"/>
            <path id="패스_57"
                  d="M964.324,777.111a1.788,1.788,0,0,0-1.664,1.154L958.38,789.9c-.853,2.418-1.507,4.4-2.021,6.152-.5-1.762-1.121-3.748-1.932-6.152l-4.093-11.605a1.784,1.784,0,0,0-1.671-1.179h-4.146l-1.873,26.892h4.62l.723-11.593c.13-2.187.244-4.456.333-6.576.477,1.6,1.046,3.371,1.73,5.406l4.283,12.609h3.536l4.662-12.815c.724-1.98,1.37-3.834,1.948-5.6.076,2.259.2,4.63.313,6.7L965.469,804h4.693l-1.677-26.891Z"
                  transform="translate(-913.56 -776.885)" fill="#ec585c"/>
            <path id="패스_58"
                  d="M1041.1,778.837l-.024-.022-.026-.02a11.241,11.241,0,0,0-6.785-2.3c-.272,0-.547.01-.818.03h-.115a40.15,40.15,0,0,0-5.066.322,2.124,2.124,0,0,0-1.826,2.118v24.641h4.761V793.567a11.979,11.979,0,0,0,1.532.1c.118,0,.237,0,.354-.005q.309.017.617.017a11.247,11.247,0,0,0,7.664-3l.042-.043a8.276,8.276,0,0,0,2.156-5.934A7.555,7.555,0,0,0,1041.1,778.837Zm-2.3,6.007c0,4.081-3.528,4.691-5.651,4.691-.092,0-.184,0-.277,0h0a10.3,10.3,0,0,1-1.674-.138v-8.647a13.231,13.231,0,0,1,1.984-.15c.115,0,.23,0,.365,0C1035.95,780.61,1038.807,781.345,1038.807,784.844Z"
                  transform="translate(-966.303 -776.501)" fill="#ec585c"/>
            <path id="패스_59"
                  d="M1085.344,777.093h-4.761l0,25.3a1.6,1.6,0,0,0,1.593,1.591H1096.2v-4.233h-10.858Z"
                  transform="translate(-1000.376 -776.874)" fill="#ec585c"/>
            <path id="패스_60"
                  d="M1133.407,799.75V792.07h9.87l0-4.2h-9.871v-6.548h10.443v-4.233H1130.71a2.067,2.067,0,0,0-2.065,2.064v22.766a2.068,2.068,0,0,0,2.065,2.059h13.705V799.75Z"
                  transform="translate(-1030.627 -776.874)" fill="#ec585c"/>
        </g>
    </g>
</svg>
