<svg id="그룹_18512" data-name="그룹 18512" xmlns="http://www.w3.org/2000/svg" width="67" height="15.97"
     viewBox="0 0 67 15.97">
    <path id="패스_7699"
          d="M876.417,778.344a7.088,7.088,0,0,0-.835-.413,6.346,6.346,0,0,0-2.623-.6,4.3,4.3,0,0,0-4.04,2.522c-.877,1.932-.241,3.891,1.935,5.98,1.6,1.621,1.667,2.469,1.251,3.386a1.92,1.92,0,0,1-1.836,1.177,3.636,3.636,0,0,1-1.489-.36,6.416,6.416,0,0,1-2.575-2.171l-.319-.461-1.714,1.961.211.283a8.162,8.162,0,0,0,3.251,2.583,7.161,7.161,0,0,0,2.943.7,4.425,4.425,0,0,0,4.186-2.677c.932-2.056.409-3.871-1.748-6.066-1.552-1.581-1.886-2.369-1.432-3.371a1.7,1.7,0,0,1,1.606-.979,3.212,3.212,0,0,1,1.311.319,5.535,5.535,0,0,1,1.916,1.429v11.345h2.8V777.093h-2.8Z"
          transform="translate(-864.173 -776.964)" fill="#ec585c"/>
    <path id="패스_7700"
          d="M955.408,777.111a1.053,1.053,0,0,0-.98.68l-2.52,6.85c-.5,1.423-.887,2.594-1.19,3.623-.292-1.038-.66-2.207-1.138-3.622l-2.41-6.833a1.05,1.05,0,0,0-.984-.694h-2.441l-1.1,15.834h2.72l.426-6.826c.076-1.287.144-2.624.2-3.872.281.941.616,1.985,1.019,3.183l2.522,7.424h2.082l2.745-7.546c.426-1.166.807-2.258,1.147-3.295.045,1.33.119,2.726.184,3.946l.4,6.982h2.763l-.987-15.834Z"
          transform="translate(-925.518 -776.978)" fill="#ec585c"/>
    <path id="패스_7701"
          d="M1035.075,777.877l-.014-.013-.015-.012a6.619,6.619,0,0,0-4-1.351c-.16,0-.322.006-.482.018h-.068a23.636,23.636,0,0,0-2.983.19,1.25,1.25,0,0,0-1.075,1.247v14.509h2.8V786.55a7.05,7.05,0,0,0,.9.058c.07,0,.139,0,.209,0q.182.01.363.01a6.622,6.622,0,0,0,4.513-1.769l.025-.025a4.873,4.873,0,0,0,1.27-3.494A4.448,4.448,0,0,0,1035.075,777.877Zm-1.352,3.537c0,2.4-2.077,2.762-3.328,2.762l-.163,0h0a6.064,6.064,0,0,1-.985-.081v-5.091a7.788,7.788,0,0,1,1.168-.088l.215,0C1032.041,778.92,1033.723,779.353,1033.723,781.414Z"
          transform="translate(-991.032 -776.501)" fill="#ec585c"/>
    <path id="패스_7702" d="M1083.385,777.093h-2.8v14.9a.941.941,0,0,0,.938.937h8.26v-2.492h-6.393Z"
          transform="translate(-1033.354 -776.964)" fill="#ec585c"/>
    <path id="패스_7703"
          d="M1131.449,790.434v-4.523h5.812v-2.471h-5.812v-3.855h6.149v-2.492h-7.738a1.217,1.217,0,0,0-1.216,1.216v13.405a1.218,1.218,0,0,0,1.216,1.212h8.07v-2.492Z"
          transform="translate(-1070.93 -776.964)" fill="#ec585c"/>
</svg>
